<svg width="316" height="46" viewBox="0 0 316 46" fill="none" xmlns="http://www.w3.org/2000/svg">
<path d="M30.6666 34.5L42.1666 23L30.6666 11.5" stroke="#1CA7C8" stroke-width="3" stroke-linecap="round" stroke-linejoin="round"/>
<path d="M15.3333 11.5L3.83331 23L15.3333 34.5" stroke="#1CA7C8" stroke-width="3" stroke-linecap="round" stroke-linejoin="round"/>
<path d="M67.56 14.2H79.464V16.96H70.824V21.616H78.312V24.376H70.824V31H67.56V14.2ZM81.3881 14.2H93.5321V16.96H84.6521V21.208H92.8361V23.92H84.6521V28.24H93.5321V31H81.3881V14.2ZM109.143 25.432V31H105.879V26.176L104.439 24.568H99.2068V31H95.9428V14.2H106.479L109.047 16.792V21.88L107.415 23.536L109.143 25.432ZM99.2068 21.88H104.991L105.831 21.04V17.776L104.991 16.936H99.2068V21.88ZM112.138 14.2H115.066L122.554 25.6H122.602V14.2H125.746V31H122.818L115.33 19.624H115.282V31H112.138V14.2ZM133.577 14.2H136.553L142.697 31H139.385L138.017 27.28H132.113L130.745 31H127.433L133.577 14.2ZM137.297 24.592L135.065 18.208H135.017L132.857 24.592H137.297ZM144.388 14.2H147.316L154.804 25.6H154.852V14.2H157.996V31H155.068L147.58 19.624H147.532V31H144.388V14.2ZM161.123 14.2H171.875L174.755 17.08V28.12L171.875 31H161.123V14.2ZM170.267 28.216L171.491 26.992V18.208L170.267 16.984H164.387V28.216H170.267ZM181.998 14.2H184.974L191.118 31H187.806L186.438 27.28H180.534L179.166 31H175.854L181.998 14.2ZM185.718 24.592L183.486 18.208H183.438L181.278 24.592H185.718ZM199.349 14.2H202.373L207.365 25.048H207.413L212.429 14.2H215.453V31H212.309V20.776H212.261L208.397 28.648H206.381L202.541 20.776H202.493V31H199.349V14.2ZM223.272 14.2H226.248L232.392 31H229.08L227.712 27.28H221.808L220.44 31H217.128L223.272 14.2ZM226.992 24.592L224.76 18.208H224.712L222.552 24.592H226.992ZM233.372 28.408V26.008H236.588V27.424L237.38 28.216H242.348L243.164 27.4V24.616L242.372 23.824H236.012L233.42 21.232V16.792L236.012 14.2H243.596L246.188 16.792V19.216H242.972V17.776L242.18 16.984H237.428L236.636 17.776V20.248L237.428 21.04H243.788L246.38 23.632V28.36L243.74 31H235.964L233.372 28.408ZM248.773 28.24V16.96L251.533 14.2H259.741L262.453 16.912V19.48H259.189V18.112L258.061 16.984H253.261L252.037 18.208V26.992L253.261 28.216H258.061L259.189 27.088V25.72H262.453V28.288L259.741 31H251.533L248.773 28.24ZM264.74 14.2H268.004V21.232H275.108V14.2H278.372V31H275.108V24.016H268.004V31H264.74V14.2ZM281.498 14.2H293.642V16.96H284.762V21.208H292.946V23.92H284.762V28.24H293.642V31H281.498V14.2ZM299.868 16.96H294.852V14.2H308.148V16.96H303.132V31H299.868V16.96ZM310.188 14.2H313.452V31H310.188V14.2Z" fill="#284260"/>
</svg>
